# xmcd CD database file
#
# Track frame offsets:
#	150
#	14845
#	32565
#	53655
#	67427
#	87102
#	103472
#	127580
#	148202
#	159922
#	171797
#	185767
#	206610
#
# Disc length: 2993 seconds
#
# Revision: 0
# Processed by: cddbd v1.5.1PL2 Copyright (c) Steve Scherf et al.
# Submitted via: CDex 1.51
#
DISCID=bc0baf0d
DTITLE=Thea Ennen and the Algorhythms - Hold Back the Sun
DYEAR=1900
DGENRE=Jazz
TTITLE0=Zero Objection
TTITLE1=The Wreath
TTITLE2=Dust and Sand
TTITLE3=Heartless
TTITLE4=Poor Doe
TTITLE5=Hold Back the Sun
TTITLE6=Ho Got the Carrot
TTITLE7=Better Learn Now
TTITLE8=Perfect House
TTITLE9=Wilder Winds
TTITLE10=Blue Streak
TTITLE11=Call of the Wild
TTITLE12=Last Serenade
EXTD=
EXTT0=
EXTT1=
EXTT2=
EXTT3=
EXTT4=
EXTT5=
EXTT6=
EXTT7=
EXTT8=
EXTT9=
EXTT10=
EXTT11=
EXTT12=
PLAYORDER=
